<?xml version="1.0" encoding="UTF-8" standalone="no"?>
<!DOCTYPE svg PUBLIC "-//W3C//DTD SVG 1.1//EN" "http://www.w3.org/Graphics/SVG/1.1/DTD/svg11.dtd">
<svg width="100%" height="100%" viewBox="0 0 685 188" version="1.1" xmlns="http://www.w3.org/2000/svg" xmlns:xlink="http://www.w3.org/1999/xlink" xml:space="preserve" xmlns:serif="http://www.serif.com/" style="fill-rule:evenodd;clip-rule:evenodd;stroke-linejoin:round;stroke-miterlimit:2;">
    <g transform="matrix(1,0,0,1,-154,-34)">
        <g>
            <g transform="matrix(1.4257,0,0,1.4257,-243.111,-576.532)">
                <g>
                    <g>
                        <path d="M459.741,500.312C459.741,501.892 459.648,503.952 459.463,506.493L429.533,507.004C429.966,510.505 431.469,513.418 434.041,515.742C436.612,518.065 439.99,519.227 444.172,519.227C448.82,519.227 453.762,518.53 458.998,517.136L458.068,526.152C453.793,527.701 448.494,528.476 442.174,528.476C434.18,528.476 428.053,526.229 423.793,521.737C419.533,517.244 417.403,511.838 417.403,505.517C417.403,498.918 419.424,493.193 423.468,488.345C427.511,483.496 433.127,481.071 440.315,481.071C446.883,481.071 451.763,482.853 454.954,486.416C458.146,489.979 459.741,494.611 459.741,500.312ZM448.866,499.894C448.866,492.767 445.83,489.204 439.757,489.204C433.963,489.204 430.524,492.891 429.44,500.265L448.866,499.894Z" style="fill:rgb(143,108,98);fill-rule:nonzero;"/>
                        <path d="M510.678,527.081L499.663,527.453C499.447,526.369 499.338,525.238 499.338,524.061L498.641,524.061C495.233,527.004 490.88,528.476 485.581,528.476C479.633,528.476 474.908,526.322 471.407,522.016C467.905,517.709 466.155,512.597 466.155,506.679C466.155,499.894 468.06,493.983 471.871,488.949C475.682,483.914 480.98,481.397 487.766,481.397C492.165,481.397 495.465,482.218 497.665,483.86L498.316,483.86C498.316,476.548 497.959,469.189 497.247,461.784L510.399,461.412C509.903,468.631 509.656,479.011 509.656,492.551C509.656,506.276 509.996,517.786 510.678,527.081ZM499.013,516.532C499.013,506.648 498.78,498.468 498.316,491.993C496.178,490.506 493.622,489.762 490.647,489.762C486.557,489.762 483.521,491.28 481.538,494.317C479.555,497.353 478.564,501.071 478.564,505.471C478.564,509.374 479.524,512.744 481.445,515.579C483.366,518.414 486.031,519.831 489.439,519.831C493.993,519.831 497.185,518.731 499.013,516.532Z" style="fill:rgb(143,108,98);fill-rule:nonzero;"/>
                        <path d="M533.683,527.128L521.181,527.128C521.615,520.714 521.832,513.356 521.832,505.052C521.832,496.811 521.305,489.592 520.252,483.395L533.637,482.047C533.234,488.058 533.032,495.726 533.032,505.052C533.032,513.015 533.249,520.374 533.683,527.128ZM535.821,468.941C535.821,471.048 535.101,472.892 533.66,474.472C532.219,476.052 530.213,476.842 527.641,476.842C525.473,476.842 523.776,476.16 522.552,474.797C521.329,473.434 520.717,471.792 520.717,469.871C520.717,467.764 521.437,465.936 522.878,464.387C524.318,462.838 526.34,462.063 528.943,462.063C531.142,462.063 532.839,462.737 534.032,464.085C535.225,465.432 535.821,467.051 535.821,468.941Z" style="fill:rgb(143,108,98);fill-rule:nonzero;"/>
                        <path d="M582.017,527.081L571.049,527.453C570.553,526.152 570.305,524.975 570.305,523.921L569.701,523.921C566.293,526.834 561.692,528.29 555.898,528.29C552.025,528.29 548.811,527.213 546.255,525.06C543.698,522.906 542.42,520.048 542.42,516.485C542.42,511.776 544.411,507.918 548.392,504.913C552.374,501.907 559.353,500.312 569.329,500.126C569.391,499.568 569.422,499.042 569.422,498.546C569.422,495.2 568.617,492.992 567.006,491.923C565.395,490.854 562.436,490.32 558.129,490.32C553.45,490.32 548.88,490.939 544.419,492.179L545.441,483.627C549.655,482.171 555.604,481.443 563.288,481.443C568.896,481.443 573.226,482.62 576.277,484.975C579.329,487.33 580.855,491.451 580.855,497.337C580.855,498.639 580.801,501.009 580.693,504.448C580.584,507.887 580.53,510.18 580.53,511.326C580.53,517.74 581.026,522.992 582.017,527.081ZM569.608,517.415C569.422,513.232 569.329,509.622 569.329,506.586C558.764,506.586 553.481,509.266 553.481,514.626C553.481,518.313 555.805,520.157 560.453,520.157C564.109,520.157 567.161,519.243 569.608,517.415Z" style="fill:rgb(143,108,98);fill-rule:nonzero;"/>
                        <path d="M632.954,527.128L620.591,527.128C621.273,519.289 621.614,511.357 621.614,503.333C621.614,498.468 620.893,495.169 619.453,493.434C618.012,491.698 615.82,490.831 612.876,490.831C609.344,490.831 605.998,492.039 602.838,494.456C602.993,506.539 603.07,517.43 603.07,527.128L590.568,527.128C591.126,517.43 591.405,509.808 591.405,504.262C591.405,496.857 590.646,489.87 589.128,483.302L601.025,482.001L601.815,486.927L602.559,486.927C606.804,483.271 611.684,481.443 617.199,481.443C621.97,481.443 625.789,482.566 628.655,484.812C631.521,487.059 632.954,491.203 632.954,497.244C632.954,498.143 632.915,499.344 632.838,500.846C632.76,502.349 632.721,503.89 632.721,505.471C632.721,509.653 632.799,516.872 632.954,527.128Z" style="fill:rgb(143,108,98);fill-rule:nonzero;"/>
                        <path d="M689.653,476.563L688.631,485.207C683.797,485.207 680.776,485.905 679.568,487.299L679.568,487.903C681.396,490.227 682.31,492.829 682.31,495.711C682.31,500.141 680.676,503.921 677.407,507.051C674.138,510.18 669.266,511.745 662.791,511.745C659.63,511.745 657.043,511.497 655.029,511.001C653.387,511.745 652.566,512.721 652.566,513.929C652.566,515.819 653.55,517.144 655.517,517.903C657.485,518.662 662.063,519.041 669.251,519.041C681.675,519.041 687.887,523.27 687.887,531.729C687.887,537.678 685.3,542.403 680.126,545.904C674.952,549.405 668.662,551.155 661.257,551.155C646.757,551.155 639.507,546.601 639.507,537.492C639.507,534.672 640.32,532.279 641.947,530.311C643.573,528.344 645.455,527.143 647.593,526.71L647.593,526.013C644.991,524.37 643.689,521.861 643.689,518.484C643.689,515.075 645.471,512.225 649.034,509.932L649.034,509.282C644.015,506.772 641.505,502.852 641.505,497.523C641.505,492.969 643.232,489.158 646.687,486.09C650.142,483.023 655.479,481.489 662.698,481.489C667.624,481.489 671.621,482.419 674.688,484.278L675.339,484.278C676.237,478.422 679.243,475.494 684.355,475.494C686.369,475.494 688.135,475.85 689.653,476.563ZM676.408,535.168C676.408,532.875 675.533,531.218 673.782,530.195C672.031,529.173 669.018,528.662 664.743,528.662C661.272,528.662 657.771,528.507 654.239,528.197C651.513,529.808 650.149,532.209 650.149,535.4C650.149,541.349 654.115,544.324 662.047,544.324C666.478,544.324 669.979,543.487 672.55,541.814C675.122,540.141 676.408,537.926 676.408,535.168ZM670.924,496.919C670.924,494.131 670.025,492.008 668.228,490.552C666.431,489.096 664.371,488.368 662.047,488.368C659.723,488.368 657.686,489.073 655.936,490.482C654.185,491.892 653.31,493.96 653.31,496.687C653.31,499.444 654.208,501.536 656.005,502.961C657.802,504.386 659.894,505.099 662.279,505.099C664.541,505.099 666.547,504.409 668.298,503.031C670.048,501.652 670.924,499.615 670.924,496.919Z" style="fill:rgb(143,108,98);fill-rule:nonzero;"/>
                        <path d="M736.082,500.312C736.082,501.892 735.989,503.952 735.803,506.493L705.873,507.004C706.307,510.505 707.809,513.418 710.381,515.742C712.953,518.065 716.33,519.227 720.513,519.227C725.16,519.227 730.102,518.53 735.338,517.136L734.409,526.152C730.133,527.701 724.835,528.476 718.514,528.476C710.52,528.476 704.394,526.229 700.133,521.737C695.873,517.244 693.743,511.838 693.743,505.517C693.743,498.918 695.765,493.193 699.808,488.345C703.851,483.496 709.467,481.071 716.655,481.071C723.224,481.071 728.104,482.853 731.295,486.416C734.486,489.979 736.082,494.611 736.082,500.312ZM725.207,499.894C725.207,492.767 722.17,489.204 716.097,489.204C710.304,489.204 706.864,492.891 705.78,500.265L725.207,499.894Z" style="fill:rgb(143,108,98);fill-rule:nonzero;"/>
                        <path d="M758.343,527.128L745.656,527.128C746.12,516.501 746.353,504.99 746.353,492.597C746.353,480.513 745.872,470.243 744.912,461.784L758.343,461.04C757.878,469.809 757.646,480.328 757.646,492.597C757.646,505.052 757.878,516.563 758.343,527.128Z" style="fill:rgb(143,108,98);fill-rule:nonzero;"/>
                    </g>
                </g>
            </g>
            <g transform="matrix(0.267652,0,0,0.267652,113.643,7.74116)">
                <g transform="matrix(1,0,0,1,-44.2288,-50.348)">
                    <path d="M269.846,602.356C262.915,605.917 255.057,607.923 246.733,607.915C218.786,607.885 196.156,585.165 196.186,557.171C196.216,529.179 218.894,506.512 246.842,506.539C255.148,506.548 262.984,508.561 269.895,512.121L269.922,463.758C269.965,385.501 333.475,321.96 411.597,322.003L587.369,322.099C665.492,322.141 728.93,385.753 728.886,464.009L728.86,512.75C736.103,508.76 744.425,506.494 753.276,506.506C781.219,506.539 803.848,529.26 803.814,557.253C803.776,585.248 781.097,607.915 753.146,607.88C744.323,607.869 736.03,605.596 728.813,601.61L728.803,620.07C729.177,746.788 626.14,849.883 499.192,849.814C372.243,849.744 269.766,746.535 269.836,619.817L269.846,602.356Z" style="fill:rgb(227,159,137);"/>
                </g>
                <g transform="matrix(0.872372,0,0,0.872372,535.534,596.776)">
                    <path d="M0,-189.53C38.004,-189.53 68.604,-158.928 68.604,-120.924L68.604,-68.605C68.604,-30.601 38.004,0 0,0C-38.007,0 -68.606,-30.601 -68.606,-68.605L-68.606,-120.924C-68.111,-158.928 -37.512,-189.53 0,-189.53" style="fill:white;fill-rule:nonzero;"/>
                </g>
                <g transform="matrix(0.872372,0,0,0.872372,376.652,596.776)">
                    <path d="M0,-189.53C-38.005,-189.53 -68.606,-158.928 -68.606,-120.924L-68.606,-68.605C-68.606,-30.601 -38.005,0 0,0C38.004,0 68.604,-30.601 68.604,-68.605L68.604,-120.924C68.111,-158.928 37.51,-189.53 0,-189.53" style="fill:white;fill-rule:nonzero;"/>
                </g>
                <g transform="matrix(1,0,0,1,-44.2288,-50.348)">
                    <path d="M425.255,524.262C427.174,523.796 429.17,523.549 431.214,523.549C445.423,523.549 456.618,534.744 456.618,548.954L456.618,579.524C456.618,593.733 444.992,604.927 431.214,604.927C417.005,604.927 405.81,593.302 405.81,579.524L405.81,555.991C407.807,556.704 409.958,557.091 412.2,557.091C422.701,557.091 431.214,548.58 431.214,538.081C431.214,532.637 428.924,527.727 425.255,524.262Z" style="fill:rgb(76,75,76);fill-rule:nonzero;"/>
                </g>
                <g transform="matrix(1,0,0,1,-44.2288,-50.348)">
                    <path d="M560.886,524.262C562.804,523.796 564.801,523.549 566.844,523.549C580.624,523.549 591.819,534.744 592.249,548.954L592.249,579.524C592.249,593.733 580.624,604.927 566.844,604.927C552.636,604.927 541.441,593.302 541.441,579.524L541.441,555.991C543.438,556.703 545.589,557.091 547.831,557.091C558.331,557.091 566.845,548.58 566.845,538.081C566.845,532.637 564.555,527.727 560.886,524.262Z" style="fill:rgb(76,75,76);fill-rule:nonzero;"/>
                </g>
                <g transform="matrix(0.872372,0,0,0.872372,389.138,724.226)">
                    <path d="M0,-103.156C-13.82,-123.885 -41.459,-128.821 -61.696,-115.002C-81.932,-101.182 -87.361,-73.047 -73.542,-52.811C-38.005,0.001 12.833,25.665 72.554,19.249C96.74,16.78 114.508,-5.428 112.039,-30.108C109.573,-54.787 87.36,-72.553 63.176,-70.089C37.016,-67.62 17.768,-76.995 0,-103.156" style="fill:white;fill-rule:nonzero;"/>
                </g>
                <g transform="matrix(0.872372,0,0,0.872372,19.3939,12.7421)">
                    <path d="M480.918,601.488L480.918,628.069C480.918,655.43 458.704,677.643 431.344,677.643L332.195,677.643C304.834,677.643 282.621,655.43 282.621,628.069L282.621,528.92C282.621,501.56 304.834,479.346 332.195,479.346L431.344,479.346C458.704,479.346 480.918,501.56 480.918,528.92L480.918,585.839L516.623,585.839L516.623,528.92C516.623,501.56 538.837,479.346 566.197,479.346L665.346,479.346C692.707,479.346 714.92,501.56 714.92,528.92L714.92,628.069C714.92,655.43 692.707,677.643 665.346,677.643L566.197,677.643C538.837,677.643 516.623,655.43 516.623,628.069L516.623,601.488L480.918,601.488ZM701.109,534.84C701.109,511.29 681.989,492.171 658.44,492.171L573.103,492.171C549.554,492.171 530.435,511.29 530.435,534.84L530.435,620.177C530.435,643.726 549.554,662.845 573.103,662.845L658.44,662.845C681.989,662.845 701.109,643.726 701.109,620.177L701.109,534.84ZM467.106,534.84C467.106,511.29 447.987,492.171 424.438,492.171L339.101,492.171C315.551,492.171 296.432,511.29 296.432,534.84L296.432,620.177C296.432,643.726 315.551,662.845 339.101,662.845L424.438,662.845C447.987,662.845 467.106,643.726 467.106,620.177L467.106,534.84Z" style="fill:rgb(61,61,61);"/>
                </g>
                <g transform="matrix(1,0,0,1,-44.2288,-50.348)">
                    <path d="M325.764,477.984C272.509,475.354 230.14,431.359 230.14,377.46C230.14,332.717 259.343,294.793 299.733,281.7C314.357,206.749 380.387,150.186 459.633,150.186C542.191,150.186 610.408,211.58 621.093,291.2C634.275,284.663 649.13,280.989 664.844,280.989C719.29,280.989 763.419,325.118 763.419,379.549C763.419,433.984 719.29,478.108 664.844,478.108C657.767,478.108 650.864,477.363 644.21,475.946L469.928,475.946C457.784,503.966 429.875,523.569 397.387,523.569C365.692,523.569 338.356,504.912 325.764,477.984Z" style="fill:rgb(58,51,48);"/>
                </g>
                <g transform="matrix(0.872372,0,0,0.872372,463.687,633.874)">
                    <path d="M0,-70.6L-17.611,-70.6C-38.458,-70.6 -55.353,-54.912 -55.353,-35.301C-55.353,-15.688 -38.458,0 -17.611,0L0,0C20.848,0 37.741,-15.688 37.741,-35.301C37.741,-54.912 20.848,-70.6 0,-70.6" style="fill:rgb(198,119,96);fill-rule:nonzero;"/>
                </g>
            </g>
        </g>
    </g>
</svg>
